<svg width="66" height="38" viewBox="0 0 66 38" fill="none" xmlns="http://www.w3.org/2000/svg">
<path d="M60.5 0H5.5C2.46354 0 0 1.78976 0 3.99575V33.2979C0 35.5039 2.46354 37.2936 5.5 37.2936H60.5C63.5365 37.2936 66 35.5039 66 33.2979V3.99575C66 1.78976 63.5365 0 60.5 0ZM60.5 33.2979H5.5V3.99575H60.5V33.2979ZM23.8333 18.6468C27.8781 18.6468 31.1667 16.2577 31.1667 13.3192C31.1667 10.3806 27.8781 7.99149 23.8333 7.99149C19.7885 7.99149 16.5 10.3806 16.5 13.3192C16.5 16.2577 19.7885 18.6468 23.8333 18.6468ZM13.5667 29.3021H34.1C35.5208 29.3021 36.6667 28.5862 36.6667 27.7038V26.1055C36.6667 23.4584 33.2177 21.3106 28.9667 21.3106C27.7292 21.3106 26.824 21.9766 23.8333 21.9766C20.751 21.9766 20.0063 21.3106 18.7 21.3106C14.449 21.3106 11 23.4584 11 26.1055V27.7038C11 28.5862 12.1458 29.3021 13.5667 29.3021ZM41.25 23.9745H54.0833C54.5875 23.9745 55 23.6748 55 23.3085V21.9766C55 21.6103 54.5875 21.3106 54.0833 21.3106H41.25C40.7458 21.3106 40.3333 21.6103 40.3333 21.9766V23.3085C40.3333 23.6748 40.7458 23.9745 41.25 23.9745ZM41.25 18.6468H54.0833C54.5875 18.6468 55 18.3471 55 17.9809V16.6489C55 16.2827 54.5875 15.983 54.0833 15.983H41.25C40.7458 15.983 40.3333 16.2827 40.3333 16.6489V17.9809C40.3333 18.3471 40.7458 18.6468 41.25 18.6468ZM41.25 13.3192H54.0833C54.5875 13.3192 55 13.0195 55 12.6532V11.3213C55 10.955 54.5875 10.6553 54.0833 10.6553H41.25C40.7458 10.6553 40.3333 10.955 40.3333 11.3213V12.6532C40.3333 13.0195 40.7458 13.3192 41.25 13.3192Z" fill="#A628DC"/>
</svg>
