<svg width="56" height="52" viewBox="0 0 56 52" fill="none" xmlns="http://www.w3.org/2000/svg">
<path d="M28 0C12.5323 0 0 11.4264 0 25.5292C0 39.632 12.5323 51.0584 28 51.0584C43.4677 51.0584 56 39.632 56 25.5292C56 11.4264 43.4677 0 28 0ZM28 9.88228C33.4871 9.88228 37.9355 13.9381 37.9355 18.941C37.9355 23.9439 33.4871 27.9998 28 27.9998C22.5129 27.9998 18.0645 23.9439 18.0645 18.941C18.0645 13.9381 22.5129 9.88228 28 9.88228ZM28 45.2938C21.3726 45.2938 15.4339 42.5555 11.4597 38.2732C13.5823 34.6291 17.7371 32.1174 22.5806 32.1174C22.8516 32.1174 23.1226 32.1586 23.3823 32.2306C24.85 32.663 26.3855 32.9409 28 32.9409C29.6145 32.9409 31.1613 32.663 32.6177 32.2306C32.8774 32.1586 33.1484 32.1174 33.4194 32.1174C38.2629 32.1174 42.4177 34.6291 44.5403 38.2732C40.5661 42.5555 34.6274 45.2938 28 45.2938Z" fill="#A628DC"/>
</svg>
